<?xml version="1.0" encoding="utf-8"?>
<!-- Svg Vector Icons : http://www.onlinewebfonts.com/icon -->
<!DOCTYPE svg PUBLIC "-//W3C//DTD SVG 1.1//EN" "http://www.w3.org/Graphics/SVG/1.1/DTD/svg11.dtd">
<svg version="1.1" xmlns="http://www.w3.org/2000/svg" xmlns:xlink="http://www.w3.org/1999/xlink" x="0px" y="0px" viewBox="0 0 1000 1000" enable-background="new 0 0 1000 1000" xml:space="preserve">
<metadata> Svg Vector Icons : http://www.onlinewebfonts.com/icon </metadata>
<g><g transform="translate(0.000000,512.000000) scale(0.100000,-0.100000)"><path d="M1373.3,4984.7c-30.6-19.1-304.4-285.3-608.9-589.7l-549.5-551.4l578.3-578.3c390.6-388.7,597.4-582.1,635.7-591.7c122.5-30.6,264.2,111.1,233.6,233.6c-9.6,36.4-134,176.2-352.3,396.3l-337,338.9h2554.3h2556.2l-319.8-319.8c-327.4-333.2-360-371.5-360-453.8c0-118.7,118.7-220.2,225.9-193.4c32.6,7.7,264.2,224,631.9,589.7l578.3,578.3l-589.7,589.7c-622.3,620.4-626.1,622.3-737.2,566.8c-105.3-53.6-141.7-189.6-78.5-285.3c17.2-26.8,170.4-187.6,340.8-358.1l308.3-312.1H3527.4H973.1l337,340.8c206.8,208.7,342.7,360,350.4,392.5c17.2,68.9-21.1,157-86.2,204.9C1507.3,5030.6,1446.1,5030.6,1373.3,4984.7z"/><path d="M100-1355v-3427.4h3427.4h3427.4V-1355v3427.4H3527.4H100V-1355z M6568-1349.3l-5.7-3040.6H3527.4H492.5l-5.7,3015.7c-1.9,1658.2,0,3027.2,5.7,3040.6c5.7,17.2,633.8,23,3044.4,23h3034.8L6568-1349.3z"/><path d="M8147.6,1379.2c-379.1-381-582.1-597.4-589.7-633.8c-17.2-67,19.1-155.1,78.5-195.3c51.7-34.5,145.5-38.3,204.9-7.7c23,11.5,185.7,164.7,363.8,338.9l319.8,319.8V-1355v-2554.3l-338.9,337c-225.9,224-360,342.7-396.4,352.3c-132.1,32.6-275.7-130.2-224-256.6c11.5-28.7,277.6-310.2,591.6-622.3l568.7-568.7l578.3,578.3c390.6,392.5,582.1,597.4,591.6,635.7c30.6,124.5-111.1,264.2-233.6,233.6c-36.4-9.6-176.2-134-394.4-352.3l-340.8-337V-1355v2556.2L9239,892.9c170.4-170.4,331.2-323.6,358.1-340.8c151.3-99.6,356.1,51.7,289.1,214.4c-13.4,28.7-277.6,310.2-591.6,622.3l-568.7,568.7L8147.6,1379.2z"/></g></g>
</svg>